<svg id="Layer_1" data-name="Layer 1" xmlns="http://www.w3.org/2000/svg" viewBox="0 0 170.08 170.08"><defs><style>.cls-1{fill:gray;}.cls-2{fill:#b2b2b2;}.cls-3{fill:#bababa;}.cls-4{fill:#878787;}.cls-5{fill:#9d9d9c;}.cls-6{fill:#c6c6c6;}</style></defs><title>collaboo</title><path class="cls-1" d="M115.67,48.44A71.75,71.75,0,0,0,107.51,45a65.45,65.45,0,0,0-9.12-2.2c-5.53-.56-11.12,0-16.64.38q-6.41.48-12.8,1-4.29.9-8.52,1.92C49.64,48.71,39.19,52.54,29.9,58.71A123.85,123.85,0,0,0,12.33,73.47,52,52,0,0,0,10.44,87c0,30.93,28.32,53.6,57.58,46.69,29.42-6.95,46-25.64,54.46-56C125.83,65.57,122.61,56,115.67,48.44Z"/><path class="cls-2" d="M60.43,46.1q4.23-1,8.52-1.92,6.39-.51,12.8-1c5.52-.4,11.11-.94,16.64-.38a65.45,65.45,0,0,1,9.12,2.2,71.75,71.75,0,0,1,8.16,3.43C105.46,37.27,87.18,30.29,69.9,25.61c-22.81-6.17-50.22,20.6-57.57,47.86A123.85,123.85,0,0,1,29.9,58.71C39.19,52.54,49.64,48.71,60.43,46.1Z"/><path class="cls-3" d="M105.89,142.06c0,.53-4.69-2.36-5.19-2.27-1.53.27.17,1.19,1.17,1.61,1.66.71,4.32,3.23,3.5,3.09-1.44-.24-3.75-1.74-6.19-2.35-.46-.12-1.05-.4-1.28-.08-.43.59.33.62,1.29,1.25a7.25,7.25,0,0,1,2.78,2.82c.5,1.33-3-1-4.56-1.79-1-.51-2.14-1.1-3.25-1.55a8.29,8.29,0,0,0-3.71-.73c-3.75.26-11.25-3.2-15.44-3.2-8,0-12.35-1.71-20.29-1.32-3,.15-4.93.65-7.56.73-2.19.06-3.44,2.4-5.2,2.36-4.57-.1-10-6.67-10-8,0-4,12.61-1.66,32.87-1.66,15.2,0,28.24,1.83,33.81,4.44C100.5,136.29,105.89,141.06,105.89,142.06Z"/><path class="cls-4" d="M154.23,135.26c.86,1.21-4-2.31-6-2.18-2.18.15,2.93,2,4.08,4.41.66,1.36-3.92-2.35-6-2.26s-1,.66-.33,1.19c1.83,1.48,2.27,1.76,2.6,3.86.09.61-5.06-4-7.64-5-4.62-1.78-6.84-11.14-5.94-11.63,1.86-1,4.85,1.78,7.31,3.13,2.28,1.25,2,4.65,5.25,4C150.34,130.18,153.06,133.61,154.23,135.26Z"/><path class="cls-5" d="M79.37,105.16c3.46,4.67,15.49,5.62,17.81,5.93,11.94,1.57,19.19-10.11,21.76-7.88,8.32,7.19,7.1,5.7,11.93,14.2,1.15,2,3.33,9.8,6,9.89,4,.12,5.75,0,3.75-10.64-.33-1.73-2.87-10.47-2.5-17.25.53-9.81,7-19.19,8.5-27.75,1.85-10.38,10.92-14.38,3.78-22.21-13-14.28-45.26-18.82-61.31-4.17A41.79,41.79,0,0,0,75.44,71.61C74.45,81.09,73.61,97.39,79.37,105.16Z"/><path class="cls-2" d="M125.34,43.57c0,4.84-.37-1.74-7.55-2-3.19-.11-7.64,3.66-9.86,1.49-6-5.9,1.45-15.56,8.78-11.38C120.36,33.77,125.34,39.59,125.34,43.57Z"/><path class="cls-4" d="M79.2,104.23c2.41,17.77,14,29.51-3.8,31.92-5.61.77-16.63-2.13-23.68-2.71-15.28-1.24-22.33,4.07-28.65-13-6.22-16.82,1.83-41.62,19.59-44A32.47,32.47,0,0,1,79.2,104.23Z"/><path class="cls-6" d="M99.53,81.33c-1.06-1-3.68,0-4.77.21-4.28,1-3.94,3.66-3.21,8.92.26,1.94,1.9,3.51,3.09,4.9.06.09.11.18.17.26A2.82,2.82,0,0,0,96,96.74a21.05,21.05,0,0,0,2,2.11c2.78,2.56,6.61,6,9.26,4.35,2-1.2,1.83-4.09.85-7a4.83,4.83,0,0,0-.19-1C106.37,90.22,106.43,81.85,99.53,81.33Z"/><path class="cls-4" d="M100.4,121.27c.34,1.62,1.16-5,2.76-6.53,1.78-1.68-.56,3.94.5,6.68.61,1.59,1.06-5,2.72-6.62s1.3-.31,1.23.64c-.19,2.62-.3,3.18,1.18,5.06.42.54.56-7.2,1.71-10.06,2.07-5.13-3.9-14.07-5-13.7-2.23.75-2.24,5.31-3,8.35-.71,2.81,2.28,5.19-.74,7.32C99.22,114.22,99.94,119.05,100.4,121.27Z"/><path class="cls-6" d="M156.56,45.42c.9,12.15-6.62,19.53-18.77,20.43s-18.57-6.73-21.64-18.52c-3.33-12.79,7.18-20.7,23-19.74C151.36,28.32,155.67,33.27,156.56,45.42Z"/><path class="cls-2" d="M159.57,31.21c.54,7.3-2.09,18.19-9.38,18.72s-17.95-6.21-16.28-13.34c1.53-6.48,5.13-9.21,12.41-11.94C153.17,22.08,159,23.91,159.57,31.21Z"/><path class="cls-5" d="M154.63,48.81c.78,9.64-3.87,17.63-12.85,19.19s-23.21-2.86-24.86-12.39,1.21-14.4,10.32-14.87c11.24-.57,8.68-1,11.37-1.75,7.9-2.08,8.56-9.73,15.91-5.19C157.86,35.87,153.79,38.52,154.63,48.81Z"/></svg>